<svg width="24" height="24" viewBox="0 0 24 24" fill="none" xmlns="http://www.w3.org/2000/svg">
<path d="M12.6863 10.6402C10.6792 10.118 10.0337 9.57804 10.0337 8.73713C10.0337 7.77231 10.9267 7.09959 12.4211 7.09959C13.6766 7.09959 14.3044 7.57757 14.5343 8.33881C14.6404 8.69288 14.9322 8.95843 15.3036 8.95843H15.5688C16.1524 8.95843 16.568 8.38307 16.3646 7.83427C15.9933 6.78978 15.1267 5.92232 13.7474 5.58596V4.9752C13.7474 4.24052 13.1549 3.64746 12.4211 3.64746C11.6872 3.64746 11.0947 4.24052 11.0947 4.9752V5.55941C9.37937 5.93118 8 7.04648 8 8.75484C8 10.7996 9.68884 11.8175 12.1558 12.4106C14.3663 12.9416 14.8084 13.7206 14.8084 14.5438C14.8084 15.1546 14.3752 16.1282 12.4211 16.1282C10.9621 16.1282 10.2105 15.606 9.91874 14.8624C9.7861 14.5172 9.48547 14.2694 9.12295 14.2694H8.87537C8.28295 14.2694 7.86737 14.8713 8.08842 15.4201C8.59242 16.6505 9.76842 17.3763 11.0947 17.6596V18.2526C11.0947 18.9873 11.6872 19.5804 12.4211 19.5804C13.1549 19.5804 13.7474 18.9873 13.7474 18.2526V17.6773C15.4716 17.3497 16.8421 16.3495 16.8421 14.5349C16.8421 12.0211 14.6935 11.1625 12.6863 10.6402Z" fill="white"/>
</svg>
