<svg width="610" height="526" viewBox="0 0 610 526" fill="none" xmlns="http://www.w3.org/2000/svg">
<g clip-path="url(#clip0)">
<path d="M106.706 523.072C106.226 523.072 105.782 522.968 105.374 522.76C104.966 522.552 104.634 522.256 104.377 521.872L104.906 521.272C105.37 521.96 105.974 522.304 106.718 522.304C107.758 522.304 108.278 521.688 108.278 520.456V515.368H105.206V514.6H109.154V520.42C109.154 521.3 108.946 521.964 108.53 522.412C108.122 522.852 107.514 523.072 106.706 523.072ZM116.909 520.756H112.229L111.221 523H110.297L114.137 514.6H115.013L118.853 523H117.917L116.909 520.756ZM116.585 520.036L114.569 515.524L112.553 520.036H116.585ZM127.263 514.6V523H126.531L121.131 516.184V523H120.243V514.6H120.975L126.387 521.416V514.6H127.263ZM132.297 512.896H133.077L129.117 524.2H128.337L132.297 512.896ZM139.016 522.232V523H133.124V522.388L136.616 518.968C137.056 518.536 137.352 518.164 137.504 517.852C137.664 517.532 137.744 517.212 137.744 516.892C137.744 516.396 137.572 516.012 137.228 515.74C136.892 515.46 136.408 515.32 135.776 515.32C134.792 515.32 134.028 515.632 133.484 516.256L132.872 515.728C133.2 515.344 133.616 515.048 134.12 514.84C134.632 514.632 135.208 514.528 135.848 514.528C136.704 514.528 137.38 514.732 137.876 515.14C138.38 515.54 138.632 516.092 138.632 516.796C138.632 517.228 138.536 517.644 138.344 518.044C138.152 518.444 137.788 518.904 137.252 519.424L134.396 522.232H139.016ZM143.402 523.072C142.754 523.072 142.174 522.9 141.662 522.556C141.158 522.212 140.762 521.72 140.474 521.08C140.194 520.432 140.054 519.672 140.054 518.8C140.054 517.928 140.194 517.172 140.474 516.532C140.762 515.884 141.158 515.388 141.662 515.044C142.174 514.7 142.754 514.528 143.402 514.528C144.05 514.528 144.626 514.7 145.13 515.044C145.642 515.388 146.042 515.884 146.33 516.532C146.618 517.172 146.762 517.928 146.762 518.8C146.762 519.672 146.618 520.432 146.33 521.08C146.042 521.72 145.642 522.212 145.13 522.556C144.626 522.9 144.05 523.072 143.402 523.072ZM143.402 522.28C143.89 522.28 144.318 522.144 144.686 521.872C145.062 521.6 145.354 521.204 145.562 520.684C145.77 520.164 145.874 519.536 145.874 518.8C145.874 518.064 145.77 517.436 145.562 516.916C145.354 516.396 145.062 516 144.686 515.728C144.318 515.456 143.89 515.32 143.402 515.32C142.914 515.32 142.482 515.456 142.106 515.728C141.738 516 141.45 516.396 141.242 516.916C141.034 517.436 140.93 518.064 140.93 518.8C140.93 519.536 141.034 520.164 141.242 520.684C141.45 521.204 141.738 521.6 142.106 521.872C142.482 522.144 142.914 522.28 143.402 522.28ZM150.304 514.6V523H149.44V515.368H147.46V514.6H150.304ZM154.928 514.528C156.04 514.528 156.892 514.896 157.484 515.632C158.076 516.36 158.372 517.392 158.372 518.728C158.372 519.664 158.212 520.456 157.892 521.104C157.572 521.752 157.124 522.244 156.548 522.58C155.972 522.908 155.3 523.072 154.532 523.072C153.7 523.072 153.036 522.92 152.54 522.616L152.888 521.92C153.288 522.184 153.832 522.316 154.52 522.316C155.448 522.316 156.176 522.024 156.704 521.44C157.232 520.848 157.496 519.992 157.496 518.872C157.496 518.664 157.484 518.436 157.46 518.188C157.252 518.644 156.92 519 156.464 519.256C156.008 519.504 155.484 519.628 154.892 519.628C154.34 519.628 153.848 519.524 153.416 519.316C152.992 519.108 152.66 518.816 152.42 518.44C152.18 518.056 152.06 517.612 152.06 517.108C152.06 516.596 152.184 516.144 152.432 515.752C152.68 515.36 153.02 515.06 153.451 514.852C153.892 514.636 154.384 514.528 154.928 514.528ZM155.024 518.896C155.448 518.896 155.82 518.816 156.14 518.656C156.468 518.496 156.724 518.276 156.908 517.996C157.092 517.716 157.184 517.404 157.184 517.06C157.184 516.74 157.096 516.444 156.92 516.172C156.752 515.9 156.5 515.68 156.164 515.512C155.828 515.344 155.428 515.26 154.964 515.26C154.356 515.26 153.86 515.428 153.476 515.764C153.1 516.092 152.912 516.532 152.912 517.084C152.912 517.636 153.1 518.076 153.476 518.404C153.86 518.732 154.376 518.896 155.024 518.896Z" fill="#374952"/>
<path d="M365.952 520.756H361.272L360.264 523H359.34L363.18 514.6H364.056L367.896 523H366.96L365.952 520.756ZM365.628 520.036L363.612 515.524L361.596 520.036H365.628ZM374.578 518.668C375.13 518.788 375.554 519.028 375.85 519.388C376.154 519.74 376.306 520.196 376.306 520.756C376.306 521.476 376.038 522.032 375.502 522.424C374.974 522.808 374.19 523 373.15 523H369.286V514.6H372.91C373.846 514.6 374.57 514.788 375.082 515.164C375.602 515.54 375.862 516.072 375.862 516.76C375.862 517.224 375.746 517.62 375.514 517.948C375.29 518.268 374.978 518.508 374.578 518.668ZM370.174 515.332V518.38H372.85C373.53 518.38 374.054 518.252 374.422 517.996C374.79 517.732 374.974 517.352 374.974 516.856C374.974 516.36 374.79 515.984 374.422 515.728C374.054 515.464 373.53 515.332 372.85 515.332H370.174ZM373.138 522.268C373.89 522.268 374.458 522.14 374.842 521.884C375.226 521.628 375.418 521.228 375.418 520.684C375.418 519.636 374.658 519.112 373.138 519.112H370.174V522.268H373.138ZM384.069 523L382.149 520.3C381.933 520.324 381.709 520.336 381.477 520.336H379.221V523H378.333V514.6H381.477C382.549 514.6 383.389 514.856 383.997 515.368C384.605 515.88 384.909 516.584 384.909 517.48C384.909 518.136 384.741 518.692 384.405 519.148C384.077 519.596 383.605 519.92 382.989 520.12L385.041 523H384.069ZM381.453 519.58C382.285 519.58 382.921 519.396 383.361 519.028C383.801 518.66 384.021 518.144 384.021 517.48C384.021 516.8 383.801 516.28 383.361 515.92C382.921 515.552 382.285 515.368 381.453 515.368H379.221V519.58H381.453ZM389.297 512.896H390.077L386.117 524.2H385.337L389.297 512.896ZM396.016 522.232V523H390.124V522.388L393.616 518.968C394.056 518.536 394.352 518.164 394.504 517.852C394.664 517.532 394.744 517.212 394.744 516.892C394.744 516.396 394.572 516.012 394.228 515.74C393.892 515.46 393.408 515.32 392.776 515.32C391.792 515.32 391.028 515.632 390.484 516.256L389.872 515.728C390.2 515.344 390.616 515.048 391.12 514.84C391.632 514.632 392.208 514.528 392.848 514.528C393.704 514.528 394.38 514.732 394.876 515.14C395.38 515.54 395.632 516.092 395.632 516.796C395.632 517.228 395.536 517.644 395.344 518.044C395.152 518.444 394.788 518.904 394.252 519.424L391.396 522.232H396.016ZM400.402 523.072C399.754 523.072 399.174 522.9 398.662 522.556C398.158 522.212 397.762 521.72 397.474 521.08C397.194 520.432 397.054 519.672 397.054 518.8C397.054 517.928 397.194 517.172 397.474 516.532C397.762 515.884 398.158 515.388 398.662 515.044C399.174 514.7 399.754 514.528 400.402 514.528C401.05 514.528 401.626 514.7 402.13 515.044C402.642 515.388 403.042 515.884 403.33 516.532C403.618 517.172 403.762 517.928 403.762 518.8C403.762 519.672 403.618 520.432 403.33 521.08C403.042 521.72 402.642 522.212 402.13 522.556C401.626 522.9 401.05 523.072 400.402 523.072ZM400.402 522.28C400.89 522.28 401.318 522.144 401.686 521.872C402.062 521.6 402.354 521.204 402.562 520.684C402.77 520.164 402.874 519.536 402.874 518.8C402.874 518.064 402.77 517.436 402.562 516.916C402.354 516.396 402.062 516 401.686 515.728C401.318 515.456 400.89 515.32 400.402 515.32C399.914 515.32 399.482 515.456 399.106 515.728C398.738 516 398.45 516.396 398.242 516.916C398.034 517.436 397.93 518.064 397.93 518.8C397.93 519.536 398.034 520.164 398.242 520.684C398.45 521.204 398.738 521.6 399.106 521.872C399.482 522.144 399.914 522.28 400.402 522.28ZM407.304 514.6V523H406.44V515.368H404.46V514.6H407.304ZM411.928 514.528C413.04 514.528 413.892 514.896 414.484 515.632C415.076 516.36 415.372 517.392 415.372 518.728C415.372 519.664 415.212 520.456 414.892 521.104C414.572 521.752 414.124 522.244 413.548 522.58C412.972 522.908 412.3 523.072 411.532 523.072C410.7 523.072 410.036 522.92 409.54 522.616L409.888 521.92C410.288 522.184 410.832 522.316 411.52 522.316C412.448 522.316 413.176 522.024 413.704 521.44C414.232 520.848 414.496 519.992 414.496 518.872C414.496 518.664 414.484 518.436 414.46 518.188C414.252 518.644 413.92 519 413.464 519.256C413.008 519.504 412.484 519.628 411.892 519.628C411.34 519.628 410.848 519.524 410.416 519.316C409.992 519.108 409.66 518.816 409.42 518.44C409.18 518.056 409.06 517.612 409.06 517.108C409.06 516.596 409.184 516.144 409.432 515.752C409.68 515.36 410.02 515.06 410.451 514.852C410.892 514.636 411.384 514.528 411.928 514.528ZM412.024 518.896C412.448 518.896 412.82 518.816 413.14 518.656C413.468 518.496 413.724 518.276 413.908 517.996C414.092 517.716 414.184 517.404 414.184 517.06C414.184 516.74 414.096 516.444 413.92 516.172C413.752 515.9 413.5 515.68 413.164 515.512C412.828 515.344 412.428 515.26 411.964 515.26C411.356 515.26 410.86 515.428 410.476 515.764C410.1 516.092 409.912 516.532 409.912 517.084C409.912 517.636 410.1 518.076 410.476 518.404C410.86 518.732 411.376 518.896 412.024 518.896Z" fill="#374952"/>
<circle cx="45" cy="494" r="4" fill="#E83B86"/>
<circle cx="128" cy="494" r="4" fill="#E83B86"/>
<circle cx="211" cy="494" r="4" fill="#E83B86"/>
<circle cx="292" cy="494" r="4" fill="#E83B86"/>
<circle cx="388" cy="494" r="4" fill="#E83B86"/>
<circle cx="507" cy="143" r="4" fill="#E83B86"/>
<circle cx="572" cy="143" r="4" fill="#E83B86"/>
<path d="M53 494.5H118.5" stroke="#E83B86" stroke-width="2" stroke-linecap="round"/>
<path d="M136 494.5H201.5" stroke="#E83B86" stroke-width="2" stroke-linecap="round"/>
<path d="M218 494.5H283.5" stroke="#E83B86" stroke-width="2" stroke-linecap="round"/>
<path d="M300 494.5H376.5" stroke="#E83B86" stroke-width="2" stroke-linecap="round"/>
<path d="M518 143.5H560.5" stroke="#E83B86" stroke-width="2" stroke-linecap="round"/>
<path d="M505 152.5C479.833 262.333 425 486.4 399 494" stroke="#E83B86" stroke-width="2" stroke-linecap="round"/>
<path d="M576 153.269C603.468 262.549 664.943 482.873 691.097 489.925" stroke="#E83B86" stroke-width="2" stroke-linecap="round"/>
</g>
<defs>
<clipPath id="clip0">
<rect width="610" height="526" fill="white"/>
</clipPath>
</defs>
</svg>
